<svg width="121" height="57" viewBox="0 0 121 57" fill="none" xmlns="http://www.w3.org/2000/svg">
<path d="M9.50142 23.5909V0.318182H15.8196V9.40909H24.1832V0.318182H30.5014V23.5909H24.1832V14.5H15.8196V23.5909H9.50142Z" fill="black"/>
<path d="M33.5014 23.5909V0.318182H50.2741V5.40909H39.8196V9.40909H49.4105V14.5H39.8196V18.5H50.2287V23.5909H33.5014Z" fill="black"/>
<path d="M53.4077 23.5909V0.318182H59.7259V18.5H69.1349V23.5909H53.4077Z" fill="black"/>
<path d="M71.6889 23.5909V0.318182H78.0071V18.5H87.4162V23.5909H71.6889Z" fill="black"/>
<path d="M111.609 11.9545C111.609 14.5455 111.106 16.7311 110.098 18.5114C109.09 20.2841 107.731 21.6288 106.018 22.5455C104.306 23.4545 102.397 23.9091 100.291 23.9091C98.17 23.9091 96.2533 23.4508 94.5412 22.5341C92.8366 21.6098 91.4806 20.2614 90.473 18.4886C89.473 16.7083 88.973 14.5303 88.973 11.9545C88.973 9.36364 89.473 7.18182 90.473 5.40909C91.4806 3.62879 92.8366 2.28409 94.5412 1.375C96.2533 0.458333 98.17 0 100.291 0C102.397 0 104.306 0.458333 106.018 1.375C107.731 2.28409 109.09 3.62879 110.098 5.40909C111.106 7.18182 111.609 9.36364 111.609 11.9545ZM105.109 11.9545C105.109 10.5606 104.924 9.38636 104.553 8.43182C104.189 7.4697 103.647 6.74242 102.928 6.25C102.215 5.75 101.337 5.5 100.291 5.5C99.2457 5.5 98.3632 5.75 97.6435 6.25C96.9313 6.74242 96.3897 7.4697 96.0185 8.43182C95.6548 9.38636 95.473 10.5606 95.473 11.9545C95.473 13.3485 95.6548 14.5265 96.0185 15.4886C96.3897 16.4432 96.9313 17.1705 97.6435 17.6705C98.3632 18.1629 99.2457 18.4091 100.291 18.4091C101.337 18.4091 102.215 18.1629 102.928 17.6705C103.647 17.1705 104.189 16.4432 104.553 15.4886C104.924 14.5265 105.109 13.3485 105.109 11.9545Z" fill="black"/>
<path d="M6.86364 56.5909L0 33.3182H7.04546L10.2273 47.6364H10.4091L14.1818 33.3182H19.7273L23.5 47.6818H23.6818L26.8636 33.3182H33.9091L27.0455 56.5909H21L17.0455 43.5909H16.8636L12.9091 56.5909H6.86364Z" fill="black"/>
<path d="M57.0312 44.9545C57.0312 47.5455 56.5275 49.7311 55.5199 51.5114C54.5123 53.2841 53.1525 54.6288 51.4403 55.5455C49.7282 56.4545 47.8191 56.9091 45.7131 56.9091C43.5919 56.9091 41.6752 56.4508 39.9631 55.5341C38.2585 54.6098 36.9025 53.2614 35.8949 51.4886C34.8949 49.7083 34.3949 47.5303 34.3949 44.9545C34.3949 42.3636 34.8949 40.1818 35.8949 38.4091C36.9025 36.6288 38.2585 35.2841 39.9631 34.375C41.6752 33.4583 43.5919 33 45.7131 33C47.8191 33 49.7282 33.4583 51.4403 34.375C53.1525 35.2841 54.5123 36.6288 55.5199 38.4091C56.5275 40.1818 57.0312 42.3636 57.0312 44.9545ZM50.5312 44.9545C50.5312 43.5606 50.3456 42.3864 49.9744 41.4318C49.6108 40.4697 49.0691 39.7424 48.3494 39.25C47.6373 38.75 46.7585 38.5 45.7131 38.5C44.6676 38.5 43.785 38.75 43.0653 39.25C42.3532 39.7424 41.8116 40.4697 41.4403 41.4318C41.0767 42.3864 40.8949 43.5606 40.8949 44.9545C40.8949 46.3485 41.0767 47.5265 41.4403 48.4886C41.8116 49.4432 42.3532 50.1705 43.0653 50.6705C43.785 51.1629 44.6676 51.4091 45.7131 51.4091C46.7585 51.4091 47.6373 51.1629 48.3494 50.6705C49.0691 50.1705 49.6108 49.4432 49.9744 48.4886C50.3456 47.5265 50.5312 46.3485 50.5312 44.9545Z" fill="black"/>
<path d="M59.9545 56.5909V33.3182H70C71.7273 33.3182 73.2386 33.6326 74.5341 34.2614C75.8295 34.8902 76.8371 35.7955 77.5568 36.9773C78.2765 38.1591 78.6364 39.5758 78.6364 41.2273C78.6364 42.8939 78.2652 44.2992 77.5227 45.4432C76.7879 46.5871 75.7538 47.4508 74.4205 48.0341C73.0947 48.6174 71.5455 48.9091 69.7727 48.9091H63.7727V44H68.5C69.2424 44 69.875 43.9091 70.3977 43.7273C70.928 43.5379 71.3333 43.2386 71.6136 42.8295C71.9015 42.4205 72.0455 41.8864 72.0455 41.2273C72.0455 40.5606 71.9015 40.0189 71.6136 39.6023C71.3333 39.178 70.928 38.8674 70.3977 38.6705C69.875 38.4659 69.2424 38.3636 68.5 38.3636H66.2727V56.5909H59.9545ZM73.5909 45.9091L79.4091 56.5909H72.5455L66.8636 45.9091H73.5909Z" fill="black"/>
<path d="M81.3295 56.5909V33.3182H87.6477V51.5H97.0568V56.5909H81.3295Z" fill="black"/>
<path d="M108.565 56.5909H99.6108V33.3182H108.474C110.868 33.3182 112.937 33.7841 114.679 34.7159C116.429 35.6402 117.777 36.9735 118.724 38.7159C119.679 40.4508 120.156 42.5303 120.156 44.9545C120.156 47.3788 119.683 49.4621 118.736 51.2045C117.789 52.9394 116.448 54.2727 114.713 55.2045C112.978 56.1288 110.929 56.5909 108.565 56.5909ZM105.929 51.2273H108.338C109.49 51.2273 110.471 51.0417 111.281 50.6705C112.099 50.2992 112.721 49.6591 113.145 48.75C113.577 47.8409 113.793 46.5758 113.793 44.9545C113.793 43.3333 113.573 42.0682 113.134 41.1591C112.702 40.25 112.065 39.6099 111.224 39.2386C110.391 38.8674 109.368 38.6818 108.156 38.6818H105.929V51.2273Z" fill="black"/>
</svg>
